<svg xmlns="http://www.w3.org/2000/svg" width="35.7716mm" height="42.6563mm" viewBox="-3.437 -4.2464 5.9619 7.1094"><g opacity="0.7"><path fill="none" stroke="#dddddd" stroke-width="0.018" d="M0.0817 -3.8123C0.0702 -3.7732 0.0587 -3.734 0.0472 -3.6948C0.0354 -3.6548 0.0236 -3.6147 0.0119 -3.5747C-0.0002 -3.5337 -0.0123 -3.4927 -0.0244 -3.4518C-0.0249 -3.45 -0.0254 -3.4483 -0.0259 -3.4466C-0.037 -3.4089 -0.0481 -3.3712 -0.0593 -3.3334C-0.0711 -3.2936 -0.0828 -3.2539 -0.0946 -3.2141C-0.1066 -3.1736 -0.1187 -3.1331 -0.1307 -3.0926C-0.1342 -3.0809 -0.1377 -3.0692 -0.1412 -3.0575C-0.1497 -3.0291 -0.1581 -3.0007 -0.1666 -2.9724C-0.1785 -2.9327 -0.1904 -2.893 -0.2024 -2.8533C-0.2145 -2.8131 -0.2267 -2.7729 -0.2389 -2.7327C-0.247 -2.7059 -0.2552 -2.6792 -0.2634 -2.6524C-0.2675 -2.6388 -0.2717 -2.6253 -0.2758 -2.6117C-0.288 -2.572 -0.3003 -2.5323 -0.3126 -2.4926C-0.3251 -2.4525 -0.3377 -2.4125 -0.3503 -2.3724C-0.3626 -2.3338 -0.3749 -2.2952 -0.3873 -2.2566C-0.3879 -2.2549 -0.3885 -2.2532 -0.389 -2.2514C-0.4019 -2.2116 -0.4149 -2.1718 -0.4281 -2.1321C-0.4414 -2.092 -0.4548 -2.052 -0.4686 -2.012C-0.4812 -1.9751 -0.4941 -1.9382 -0.5072 -1.9014C-0.5084 -1.8981 -0.5096 -1.8948 -0.5108 -1.8914C-0.5251 -1.8514 -0.5398 -1.8115 -0.5548 -1.7717C-0.57 -1.7314 -0.5856 -1.6914 -0.6018 -1.6515C-0.6101 -1.631 -0.6185 -1.6105 -0.6272 -1.5901C-0.6355 -1.5705 -0.644 -1.5508 -0.6527 -1.5313C-0.6706 -1.4909 -0.6893 -1.4507 -0.7091 -1.4111C-0.7218 -1.3858 -0.7348 -1.3606 -0.7484 -1.3357C-0.7566 -1.3207 -0.7649 -1.3058 -0.7735 -1.291C-0.797 -1.2501 -0.822 -1.2101 -0.8482 -1.171C-0.8552 -1.1606 -0.8623 -1.1503 -0.8694 -1.14C-0.8904 -1.1098 -0.912 -1.0801 -0.9337 -1.0504C-0.9531 -1.0238 -0.9726 -0.9972 -0.991 -0.9699C-0.9997 -0.957 -1.0081 -0.944 -1.0161 -0.9307C-1.0383 -0.8936 -1.0575 -0.8534 -1.0663 -0.8111C-1.0745 -0.7721 -1.0733 -0.7307 -1.0654 -0.6917C-1.0571 -0.6504 -1.0422 -0.6106 -1.0261 -0.5718C-1.0145 -0.544 -1.0021 -0.5165 -0.9898 -0.489C-0.9842 -0.4765 -0.9786 -0.464 -0.9731 -0.4515C-0.9556 -0.4119 -0.9386 -0.372 -0.923 -0.3316C-0.9077 -0.292 -0.8937 -0.2519 -0.8809 -0.2115C-0.8764 -0.1973 -0.8721 -0.1831 -0.8679 -0.1689C-0.8603 -0.1432 -0.8533 -0.1174 -0.8466 -0.0914C-0.8363 -0.0516 -0.827 -0.0116 -0.8185 0.0286C-0.81 0.0684 -0.8022 0.1085 -0.7949 0.1486C-0.7877 0.1885 -0.781 0.2285 -0.7747 0.2686C-0.7685 0.3085 -0.7626 0.3485 -0.7571 0.3886C-0.7535 0.4139 -0.7502 0.4393 -0.7469 0.4647C-0.745 0.4793 -0.7431 0.494 -0.7413 0.5086C-0.7363 0.5486 -0.7315 0.5886 -0.7269 0.6286C-0.7224 0.6686 -0.718 0.7086 -0.7137 0.7487C-0.7095 0.7886 -0.7054 0.8287 -0.7014 0.8687C-0.6974 0.9087 -0.6935 0.9487 -0.6897 0.9887C-0.686 1.0287 -0.6823 1.0687 -0.6786 1.1087C-0.675 1.1487 -0.6715 1.1887 -0.668 1.2287C-0.6645 1.2687 -0.661 1.3087 -0.6577 1.3487C-0.6543 1.3887 -0.6509 1.4287 -0.6476 1.4687C-0.6443 1.5087 -0.641 1.5486 -0.6378 1.5886C-0.6345 1.6286 -0.6313 1.6686 -0.6281 1.7086C-0.6279 1.7111 -0.6277 1.7135 -0.6275 1.716C-0.6245 1.7535 -0.6216 1.7911 -0.6186 1.8286C-0.6154 1.8687 -0.6123 1.9087 -0.6092 1.9487C-0.6061 1.9887 -0.6029 2.0287 -0.5998 2.0688C-0.5967 2.1088 -0.5937 2.1488 -0.5906 2.1888C-0.5875 2.2288 -0.5844 2.2688 -0.5814 2.3089C-0.5783 2.3489 -0.5753 2.3889 -0.5722 2.4289"/><path fill="none" stroke="#92afee" stroke-width="0.018" d="M-0.596 0.1488C-0.5842 0.1895 -0.5706 0.2297 -0.5545 0.2689C-0.541 0.3018 -0.5256 0.3341 -0.508 0.3651C-0.5035 0.3731 -0.4987 0.3811 -0.4939 0.3889C-0.4668 0.4326 -0.4344 0.4735 -0.3971 0.5089C-0.394 0.5119 -0.3908 0.5148 -0.3876 0.5177C-0.3515 0.5504 -0.3107 0.5784 -0.2672 0.6003C-0.2438 0.6122 -0.2194 0.6224 -0.1945 0.6309C-0.1791 0.6362 -0.1634 0.6408 -0.1475 0.6448C-0.1084 0.6546 -0.0681 0.6606 -0.0278 0.6627C0.0121 0.6648 0.0522 0.6632 0.0918 0.658C0.1325 0.6527 0.1729 0.6437 0.212 0.6311C0.2142 0.6304 0.2165 0.6297 0.2187 0.6289C0.2575 0.6161 0.2952 0.5997 0.3312 0.5803C0.3694 0.5598 0.4058 0.5357 0.4398 0.5088C0.4439 0.5055 0.4479 0.5023 0.452 0.4989C0.492 0.4659 0.5289 0.4285 0.562 0.3884C0.5654 0.3843 0.5688 0.3801 0.5722 0.3759C0.5994 0.3416 0.6241 0.3053 0.6463 0.2676C0.663 0.2392 0.6784 0.21 0.6926 0.1802C0.6977 0.1696 0.7026 0.1588 0.7074 0.148C0.7248 0.1087 0.7402 0.0684 0.754 0.0276C0.7674 -0.0118 0.7793 -0.0517 0.79 -0.0918C0.7982 -0.1224 0.8057 -0.153 0.8127 -0.1839C0.8148 -0.1931 0.8168 -0.2023 0.8188 -0.2115C0.8275 -0.2515 0.8353 -0.2915 0.8424 -0.3318C0.8494 -0.3716 0.8557 -0.4116 0.8614 -0.4517C0.867 -0.4916 0.872 -0.5316 0.8763 -0.5716C0.8806 -0.6115 0.8842 -0.6515 0.8871 -0.6915C0.89 -0.7315 0.8923 -0.7715 0.8939 -0.8115C0.8955 -0.8514 0.8964 -0.8914 0.8965 -0.9314C0.8966 -0.9714 0.8959 -1.0114 0.8942 -1.0513C0.8925 -1.0913 0.8898 -1.1313 0.8857 -1.1711C0.8816 -1.2112 0.8762 -1.2512 0.869 -1.2908C0.8616 -1.3312 0.8524 -1.3713 0.8411 -1.4107C0.8329 -1.439 0.8237 -1.467 0.8131 -1.4944C0.8084 -1.5067 0.8035 -1.519 0.7983 -1.5311C0.7805 -1.5723 0.7596 -1.6124 0.7357 -1.6505C0.7222 -1.6719 0.7077 -1.6928 0.6922 -1.7128C0.6766 -1.733 0.66 -1.7525 0.6425 -1.7711C0.6203 -1.7945 0.5965 -1.8166 0.5715 -1.8369C0.5466 -1.857 0.5203 -1.8755 0.4929 -1.8921C0.4794 -1.9003 0.4655 -1.9081 0.4514 -1.9153C0.4131 -1.9351 0.3727 -1.9513 0.3314 -1.9634C0.2925 -1.9747 0.2523 -1.9826 0.2119 -1.9865C0.1722 -1.9903 0.132 -1.9904 0.0923 -1.9864C0.0518 -1.9824 0.0116 -1.9741 -0.0271 -1.9615C-0.0691 -1.9478 -0.1098 -1.9288 -0.1474 -1.9053C-0.154 -1.9012 -0.1605 -1.8969 -0.1669 -1.8925C-0.2033 -1.8676 -0.2369 -1.8382 -0.2672 -1.806C-0.2775 -1.7951 -0.2874 -1.7838 -0.2971 -1.7723C-0.3285 -1.7345 -0.3565 -1.6937 -0.3817 -1.6516C-0.3839 -1.648 -0.386 -1.6444 -0.388 -1.6409C-0.4088 -1.6054 -0.4277 -1.5688 -0.4453 -1.5317C-0.4639 -1.4923 -0.481 -1.4521 -0.4968 -1.4114C-0.501 -1.4007 -0.5051 -1.3899 -0.5091 -1.3791C-0.5198 -1.3501 -0.5299 -1.3208 -0.5393 -1.2913C-0.552 -1.2516 -0.5635 -1.2116 -0.5738 -1.1712C-0.5839 -1.1315 -0.5928 -1.0915 -0.6005 -1.0513C-0.6081 -1.0115 -0.6145 -0.9715 -0.62 -0.9314C-0.6231 -0.9086 -0.626 -0.8857 -0.6287 -0.8629C-0.6307 -0.8457 -0.6326 -0.8286 -0.6345 -0.8114C-0.6389 -0.7714 -0.6431 -0.7314 -0.6472 -0.6914C-0.6513 -0.6514 -0.6553 -0.6114 -0.6585 -0.5714C-0.6618 -0.5315 -0.6643 -0.4914 -0.6656 -0.4514C-0.667 -0.4114 -0.6672 -0.3714 -0.6662 -0.3314C-0.6652 -0.2913 -0.663 -0.2513 -0.6596 -0.2114C-0.6563 -0.1713 -0.6518 -0.1312 -0.6461 -0.0914C-0.6411 -0.0563 -0.6353 -0.0212 -0.6284 0.0136C-0.6274 0.0186 -0.6264 0.0236 -0.6254 0.0286C-0.617 0.069 -0.6074 0.1091 -0.596 0.1488Z"/><path fill="none" stroke="#efa185" stroke-width="0.018" d="M-1.7499 -0.9326C-1.7626 -0.8937 -1.7685 -0.8522 -1.7679 -0.8113C-1.7674 -0.7701 -1.7596 -0.7273 -1.7409 -0.6905C-1.7332 -0.6754 -1.7236 -0.6612 -1.7125 -0.6484C-1.6838 -0.6154 -1.6449 -0.5916 -1.6059 -0.5718C-1.6001 -0.5688 -1.5943 -0.5659 -1.5884 -0.5631C-1.5491 -0.544 -1.509 -0.5268 -1.4697 -0.5078C-1.4351 -0.4911 -1.4011 -0.4731 -1.3683 -0.453C-1.3616 -0.4488 -1.3549 -0.4446 -1.3482 -0.4403C-1.3055 -0.4124 -1.265 -0.3806 -1.2283 -0.3451C-1.2238 -0.3408 -1.2194 -0.3365 -1.2151 -0.3321C-1.1791 -0.2955 -1.1468 -0.255 -1.1192 -0.2119C-1.1152 -0.2056 -1.1112 -0.1992 -1.1073 -0.1927C-1.0881 -0.1605 -1.0712 -0.1267 -1.0567 -0.0921C-1.0405 -0.0531 -1.0274 -0.0127 -1.0173 0.0283C-1.0077 0.0678 -1.0008 0.1081 -0.997 0.1486C-0.9933 0.1884 -0.9926 0.2287 -0.9954 0.2686C-0.9982 0.3092 -1.0049 0.3499 -1.0161 0.389C-1.0283 0.4313 -1.0463 0.4725 -1.0702 0.5094C-1.0814 0.5268 -1.0939 0.5433 -1.1076 0.5588C-1.1318 0.5861 -1.16 0.6103 -1.1905 0.6304C-1.2027 0.6384 -1.2154 0.6459 -1.2283 0.6527C-1.266 0.6724 -1.3068 0.687 -1.3483 0.6964C-1.3874 0.7052 -1.4278 0.7095 -1.4679 0.7096C-1.508 0.7097 -1.5482 0.7055 -1.5875 0.6976C-1.6285 0.6893 -1.6688 0.6767 -1.7074 0.6605C-1.7288 0.6514 -1.7499 0.6412 -1.7703 0.6299C-1.79 0.6191 -1.8092 0.6072 -1.8277 0.5944C-1.8644 0.5691 -1.8989 0.5402 -1.9304 0.5087C-1.9364 0.5026 -1.9424 0.4965 -1.9482 0.4902C-1.9779 0.4584 -2.005 0.424 -2.0293 0.388C-2.0435 0.3671 -2.0567 0.3456 -2.0691 0.3236C-2.0795 0.3053 -2.0893 0.2867 -2.0986 0.2678C-2.1179 0.2286 -2.1351 0.1883 -2.1513 0.1478C-2.1638 0.1164 -2.1758 0.0848 -2.1884 0.0535C-2.1919 0.045 -2.1953 0.0366 -2.1989 0.0282C-2.2168 -0.0141 -2.2371 -0.0562 -2.2648 -0.0928C-2.2773 -0.1092 -2.2912 -0.1246 -2.3065 -0.1384C-2.34 -0.1688 -2.3802 -0.1919 -2.421 -0.2114C-2.4233 -0.2125 -2.4255 -0.2135 -2.4278 -0.2146C-2.467 -0.233 -2.5071 -0.2491 -2.5469 -0.2661C-2.5877 -0.2836 -2.6283 -0.3019 -2.6676 -0.3225C-2.6729 -0.3252 -2.6781 -0.328 -2.6833 -0.3309C-2.7192 -0.3504 -2.7542 -0.372 -2.7873 -0.396C-2.8108 -0.4131 -2.8335 -0.4313 -2.8551 -0.4508C-2.8736 -0.4676 -2.8914 -0.4853 -2.9082 -0.5039C-2.9276 -0.5253 -2.9457 -0.5479 -2.9622 -0.5716C-2.988 -0.6085 -3.0103 -0.6482 -3.028 -0.6896C-3.0282 -0.6902 -3.0285 -0.6908 -3.0288 -0.6914C-3.0452 -0.7301 -3.0578 -0.7706 -3.066 -0.8117C-3.0739 -0.851 -3.078 -0.8913 -3.078 -0.9314C-3.078 -0.9715 -3.0739 -1.0118 -3.066 -1.0511C-3.0576 -1.0923 -3.0448 -1.1328 -3.0281 -1.1714C-3.028 -1.1715 -3.028 -1.1717 -3.0279 -1.1718C-3.0097 -1.2139 -2.9865 -1.2541 -2.9595 -1.2912C-2.9437 -1.3128 -2.9266 -1.3335 -2.9083 -1.353C-2.8885 -1.374 -2.8674 -1.3937 -2.8452 -1.4121C-2.8267 -1.4273 -2.8074 -1.4416 -2.7874 -1.4549C-2.7496 -1.4802 -2.7093 -1.502 -2.6677 -1.5203C-2.6579 -1.5247 -2.6481 -1.5288 -2.6381 -1.5328C-2.6084 -1.5446 -2.5781 -1.5548 -2.5474 -1.5637C-2.5079 -1.5752 -2.4678 -1.5845 -2.4275 -1.5927C-2.3876 -1.6009 -2.3474 -1.6079 -2.3076 -1.6163C-2.267 -1.6249 -2.2262 -1.6349 -2.1879 -1.6508C-2.1875 -1.651 -2.1871 -1.6511 -2.1867 -1.6513C-2.1423 -1.6699 -2.1013 -1.6987 -2.0682 -1.7336C-2.0573 -1.7451 -2.047 -1.7572 -2.0371 -1.7696C-2.0065 -1.8082 -1.98 -1.8499 -1.9528 -1.8911C-1.9513 -1.8935 -1.9497 -1.8959 -1.9481 -1.8983C-1.923 -1.9363 -1.8973 -1.974 -1.8697 -2.0103C-1.8564 -2.0277 -1.8427 -2.0447 -1.8285 -2.0613C-1.8077 -2.0856 -1.7858 -2.1089 -1.7628 -2.131C-1.7451 -2.1479 -1.7268 -2.1641 -1.7077 -2.1794C-1.6743 -2.2063 -1.6387 -2.2307 -1.6013 -2.2517C-1.5968 -2.2542 -1.5923 -2.2567 -1.5877 -2.2591C-1.5493 -2.2796 -1.5089 -2.2968 -1.4673 -2.3099C-1.4284 -2.3221 -1.3882 -2.3308 -1.3477 -2.3356C-1.3081 -2.3403 -1.2678 -2.3412 -1.228 -2.3382C-1.1876 -2.3352 -1.1473 -2.328 -1.1084 -2.3165C-1.0665 -2.3043 -1.0257 -2.2869 -0.9881 -2.2647C-0.9813 -2.2607 -0.9747 -2.2565 -0.9681 -2.2522C-0.9305 -2.2275 -0.896 -2.197 -0.8674 -2.1622C-0.8594 -2.1524 -0.8518 -2.1422 -0.8447 -2.1317C-0.82 -2.0951 -0.8012 -2.054 -0.7893 -2.0116C-0.7785 -1.9726 -0.7731 -1.9319 -0.7724 -1.8914C-0.7716 -1.8512 -0.7754 -1.8108 -0.7825 -1.7713C-0.7898 -1.7304 -0.8008 -1.6901 -0.8146 -1.651C-0.8292 -1.6099 -0.847 -1.5698 -0.8678 -1.5314C-0.8679 -1.5314 -0.8679 -1.5313 -0.8679 -1.5313C-0.891 -1.4887 -0.918 -1.4479 -0.9484 -1.4101C-0.9609 -1.3946 -0.974 -1.3795 -0.9877 -1.365C-1.0134 -1.3378 -1.0412 -1.3125 -1.0706 -1.2894C-1.0829 -1.2798 -1.0955 -1.2706 -1.1084 -1.2618C-1.1462 -1.236 -1.1866 -1.2136 -1.2283 -1.1949C-1.2499 -1.1852 -1.272 -1.1764 -1.2943 -1.1685C-1.3122 -1.1622 -1.3303 -1.1564 -1.3485 -1.1511C-1.3882 -1.1395 -1.4285 -1.1303 -1.4688 -1.1213C-1.5092 -1.1123 -1.55 -1.1038 -1.5891 -1.0904C-1.6156 -1.0813 -1.6416 -1.0697 -1.6644 -1.0536C-1.6824 -1.041 -1.6986 -1.0253 -1.7118 -1.0077C-1.7286 -0.9852 -1.7411 -0.9592 -1.7499 -0.9326Z"/><path fill="none" stroke="#617ede" stroke-width="0.018" d="M-0.2634 -0.6395C-0.2698 -0.6164 -0.2783 -0.5938 -0.2879 -0.5717C-0.3055 -0.5311 -0.3264 -0.4919 -0.346 -0.4522C-0.3612 -0.4214 -0.3756 -0.3902 -0.3881 -0.3583C-0.3916 -0.3494 -0.3949 -0.3405 -0.398 -0.3315C-0.4116 -0.2926 -0.422 -0.2524 -0.4283 -0.2116C-0.4345 -0.1719 -0.4369 -0.1315 -0.4355 -0.0913C-0.434 -0.0509 -0.4288 -0.0105 -0.4197 0.0289C-0.4123 0.0608 -0.4024 0.0923 -0.3898 0.1225C-0.3861 0.1315 -0.3821 0.1403 -0.3779 0.149C-0.3569 0.1929 -0.3293 0.2344 -0.2961 0.27C-0.2873 0.2794 -0.2781 0.2883 -0.2686 0.2969C-0.2333 0.3284 -0.192 0.3543 -0.1482 0.372C-0.1262 0.3809 -0.1034 0.3878 -0.0803 0.3927C-0.063 0.3964 -0.0455 0.3989 -0.0279 0.4003C0.012 0.4036 0.0528 0.4009 0.0921 0.3928C0.0964 0.3919 0.1007 0.391 0.105 0.39C0.1423 0.3811 0.1788 0.3671 0.2126 0.3491C0.2524 0.3278 0.2894 0.3005 0.3218 0.2692C0.3255 0.2657 0.3291 0.2621 0.3326 0.2585C0.3646 0.2258 0.3924 0.1886 0.4155 0.1491C0.4302 0.124 0.4431 0.0978 0.4542 0.0709C0.46 0.057 0.4653 0.0428 0.4702 0.0286C0.4835 -0.0105 0.4935 -0.0508 0.5006 -0.0914C0.5075 -0.131 0.5117 -0.1712 0.5138 -0.2114C0.5158 -0.2513 0.5158 -0.2914 0.5147 -0.3314C0.5137 -0.3714 0.5115 -0.4114 0.5101 -0.4515C0.5087 -0.4914 0.5081 -0.5314 0.5102 -0.5713C0.5123 -0.6114 0.5172 -0.6515 0.5247 -0.6909C0.5323 -0.7313 0.5423 -0.7712 0.5525 -0.8111C0.559 -0.8364 0.5657 -0.8618 0.5719 -0.8873C0.5755 -0.9019 0.5789 -0.9166 0.5822 -0.9313C0.591 -0.971 0.5984 -1.011 0.6034 -1.0514C0.6083 -1.0911 0.611 -1.1313 0.6107 -1.1714C0.6104 -1.2115 0.6072 -1.2518 0.6005 -1.2914C0.5944 -1.3275 0.5854 -1.3633 0.5732 -1.3979C0.5716 -1.4024 0.5699 -1.407 0.5682 -1.4115C0.5521 -1.454 0.5308 -1.495 0.5046 -1.5322C0.4893 -1.554 0.4722 -1.5747 0.4535 -1.5938C0.4318 -1.616 0.4077 -1.6362 0.3819 -1.6537C0.366 -1.6644 0.3495 -1.6742 0.3324 -1.6828C0.2947 -1.7017 0.2538 -1.7153 0.2122 -1.7225C0.1727 -1.7292 0.1318 -1.7303 0.092 -1.7253C0.0507 -1.7202 0.0097 -1.7084 -0.0282 -1.691C-0.0505 -1.6808 -0.0719 -1.6685 -0.0921 -1.6545C-0.1124 -1.6406 -0.1315 -1.6248 -0.1492 -1.6078C-0.1729 -1.5851 -0.1943 -1.5598 -0.2132 -1.533C-0.2351 -1.5018 -0.2539 -1.4683 -0.2694 -1.4335C-0.2726 -1.4263 -0.2757 -1.419 -0.2787 -1.4116C-0.2942 -1.3729 -0.3059 -1.3325 -0.3136 -1.2916C-0.321 -1.2521 -0.3246 -1.2116 -0.3244 -1.1714C-0.3243 -1.1312 -0.3203 -1.0909 -0.3135 -1.0513C-0.3066 -1.0109 -0.2967 -0.971 -0.2863 -0.9313C-0.2792 -0.9046 -0.272 -0.8778 -0.2658 -0.8509C-0.2628 -0.8378 -0.2601 -0.8246 -0.2577 -0.8113C-0.2508 -0.7719 -0.248 -0.7312 -0.2529 -0.6915C-0.2551 -0.674 -0.2587 -0.6566 -0.2634 -0.6395Z"/><path fill="none" stroke="#d45b50" stroke-width="0.018" d="M-1.5886 -0.161C-1.6325 -0.1539 -1.6765 -0.1337 -1.7089 -0.1032C-1.7126 -0.0997 -1.7162 -0.096 -1.7197 -0.0923C-1.7496 -0.0597 -1.7691 -0.0157 -1.7759 0.028C-1.7821 0.0681 -1.779 0.1104 -1.7683 0.1495C-1.7567 0.192 -1.7358 0.2329 -1.7081 0.2672C-1.7077 0.2677 -1.7073 0.2682 -1.7069 0.2687C-1.6758 0.3068 -1.6347 0.3386 -1.5895 0.358C-1.5516 0.3743 -1.509 0.3826 -1.4678 0.3804C-1.4245 0.378 -1.38 0.3634 -1.3447 0.3382C-1.3203 0.3208 -1.2992 0.2979 -1.2837 0.2722C-1.2616 0.2356 -1.25 0.1915 -1.2489 0.1487C-1.2479 0.1072 -1.2563 0.0646 -1.2721 0.0262C-1.2889 -0.0145 -1.3148 -0.0524 -1.3468 -0.0827C-1.3506 -0.0863 -1.3546 -0.0899 -1.3587 -0.0934C-1.3899 -0.12 -1.4274 -0.1407 -1.4668 -0.1525C-1.5058 -0.1641 -1.6288 -0.1545 -1.5886 -0.161ZM-2.6714 -1.0817C-2.6783 -1.0725 -2.6846 -1.0629 -2.6902 -1.0529C-2.7106 -1.0163 -2.7219 -0.9733 -2.722 -0.9314C-2.722 -0.8896 -2.7109 -0.8466 -2.6908 -0.8099C-2.6851 -0.7994 -2.6786 -0.7893 -2.6714 -0.7796C-2.642 -0.7401 -2.5995 -0.7079 -2.5535 -0.6903C-2.5517 -0.6896 -2.5498 -0.689 -2.548 -0.6883C-2.51 -0.6747 -2.4675 -0.67 -2.4277 -0.676C-2.4143 -0.678 -2.401 -0.6812 -2.3882 -0.6857C-2.3569 -0.6964 -2.3275 -0.715 -2.3043 -0.7385C-2.2841 -0.7589 -2.2677 -0.7834 -2.2557 -0.8094C-2.2381 -0.8472 -2.2288 -0.8896 -2.2279 -0.9313C-2.2269 -0.9727 -2.2343 -1.0155 -2.2512 -1.0533C-2.2636 -1.0809 -2.2817 -1.1067 -2.304 -1.1272C-2.3287 -1.15 -2.3597 -1.167 -2.3919 -1.1765C-2.4036 -1.18 -2.4156 -1.1825 -2.4277 -1.1841C-2.4676 -1.1895 -2.5099 -1.1849 -2.5479 -1.1716C-2.548 -1.1715 -2.5481 -1.1715 -2.5482 -1.1715C-2.5962 -1.1546 -2.7019 -1.0411 -2.6714 -1.0817ZM-1.1944 -1.5271C-1.2049 -1.5206 -1.2158 -1.5148 -1.227 -1.5096C-1.2645 -1.4924 -1.3066 -1.4827 -1.3479 -1.4824C-1.3893 -1.482 -1.432 -1.4912 -1.4691 -1.5096C-1.4802 -1.5152 -1.4909 -1.5216 -1.5011 -1.5288C-1.5413 -1.5576 -1.5729 -1.6033 -1.585 -1.6513C-1.5949 -1.6901 -1.5941 -1.7325 -1.585 -1.7715C-1.5747 -1.8157 -1.5535 -1.8583 -1.5253 -1.8938C-1.5095 -1.9139 -1.4911 -1.9321 -1.471 -1.9479C-1.4352 -1.9759 -1.3924 -1.9967 -1.3481 -2.0067C-1.3089 -2.0155 -1.2669 -2.0161 -1.2277 -2.0073C-1.1812 -1.9969 -1.1357 -1.9716 -1.1039 -1.9361C-1.0923 -1.9232 -1.0822 -1.9088 -1.074 -1.8936C-1.0542 -1.8568 -1.0451 -1.8129 -1.0469 -1.7712C-1.0486 -1.7292 -1.0607 -1.6869 -1.0802 -1.6497C-1.0871 -1.6363 -1.0951 -1.6234 -1.1039 -1.6112C-1.128 -1.5778 -1.1593 -1.5486 -1.1944 -1.5271Z"/></g><path fill="none" stroke="#000000" stroke-width="0.04" stroke-linecap="round" stroke-miterlimit="4" d="M-0.6674 -1.156L-1.2552 -1.735L-2.0742 -1.6365L-2.5079 -0.9347L-2.2296 -0.1581L-1.4489 0.1086L-0.7537 -0.3356"/><path fill="none" stroke="#000000" stroke-width="0.04" stroke-linecap="round" stroke-miterlimit="4" d="M-0.6674 -1.156L0.1395 -1.3276L0.552 -0.6131L0 0L-0.7537 -0.3356"/><path fill="none" stroke="#000000" stroke-width="0.04" stroke-linecap="round" stroke-miterlimit="4" d="M-0.6674 -1.156L-0.7537 -0.3356"/><path fill="none" stroke="#000000" stroke-width="0.04" stroke-linecap="round" stroke-miterlimit="4" stroke-dasharray="0.11 0.09" d="M0.0691 -1.1695L0.3799 -0.6312L-0.036 -0.1693L-0.6038 -0.4221L-0.5388 -1.0402Z"/><path fill="none" stroke="#000000" stroke-width="0.04" stroke-linecap="round" stroke-miterlimit="4" stroke-dasharray="0.11 0.09" d="M-2.3534 -0.9185L-1.9906 -1.5056L-1.3054 -1.5879L-0.8137 -1.1036L-0.8859 -0.4173L-1.4675 -0.0457L-2.1205 -0.2688Z"/><path fill="none" stroke="#617ede" stroke-width="0.018" d="M1.2646 1.4791L1.6046 1.4791"/><path fill="none" stroke="#92afee" stroke-width="0.018" d="M1.2646 0.3937L1.6046 0.3937"/><path fill="none" stroke="#dddddd" stroke-width="0.018" d="M1.2646 -0.6917L1.6046 -0.6917"/><path fill="none" stroke="#efa185" stroke-width="0.018" d="M1.2646 -1.7771L1.6046 -1.7771"/><path fill="none" stroke="#d45b50" stroke-width="0.018" d="M1.2646 -2.8625L1.6046 -2.8625"/><text x="1.6556" y="2.509"><tspan font-family="Helvetica,Arial,sans-serif" font-size="0.208">−0.17</tspan></text><text x="1.6556" y="-3.7502"><tspan font-family="Helvetica,Arial,sans-serif" font-size="0.208">+0.17</tspan></text><text x="1.6556" y="-0.6206"><tspan font-family="Helvetica,Arial,sans-serif" font-size="0.208">+0.00</tspan></text></svg>