<svg xmlns="http://www.w3.org/2000/svg" width="70.651mm" height="59.2438mm" viewBox="-4.509 -2.6579 5.0465 4.2317"><path fill="none" stroke="#000000" stroke-width="0.075" stroke-linecap="round" stroke-miterlimit="4" d="M-0.4845 -0.9308L-0.3805 -1.4201L-0.8305 -1.6799"/><path fill="none" stroke="#000000" stroke-width="0.075" stroke-linecap="round" stroke-miterlimit="4" d="M0 0L-0.2994 -0.3325"/><path fill="none" stroke="#000000" stroke-width="0.075" stroke-linecap="round" stroke-miterlimit="4" d="M-0.8242 -0.5845L-1.3725 -0.5269"/><path fill="none" stroke="#000000" stroke-width="0.075" stroke-linecap="round" stroke-miterlimit="4" d="M-1.3521 -1.6011L-1.7081 -1.2805"/><path fill="none" stroke="#000000" stroke-width="0.075" stroke-linecap="round" stroke-miterlimit="4" d="M-1.7081 -1.2805L-1.3725 -0.5269"/><path fill="none" stroke="#000000" stroke-width="0.075" stroke-linecap="round" stroke-miterlimit="4" d="M-1.7081 -1.2805L-2.2564 -1.3382"/><path fill="none" stroke="#000000" stroke-width="0.075" stroke-linecap="round" stroke-miterlimit="4" d="M-1.3725 -0.5269L-1.8574 0.1406"/><path fill="none" stroke="#000000" stroke-width="0.075" stroke-linecap="round" stroke-miterlimit="4" d="M-1.8574 0.1406L-2.4057 0.0829"/><path fill="none" stroke="#000000" stroke-width="0.075" stroke-linecap="round" stroke-miterlimit="4" d="M-2.8875 0.3428L-3.1628 0.7218"/><path fill="none" stroke="#000000" stroke-width="0.075" stroke-linecap="round" stroke-miterlimit="4" d="M-2.8176 -0.2595L-3.0135 -0.6993"/><path fill="none" stroke="#000000" stroke-width="0.075" stroke-linecap="round" stroke-miterlimit="4" d="M-3.0135 -0.6993L-2.7382 -1.0783"/><path fill="none" stroke="#000000" stroke-width="0.075" stroke-linecap="round" stroke-miterlimit="4" d="M-2.6683 -1.6806L-2.8641 -2.1204"/><path fill="none" stroke="#000000" stroke-width="0.075" stroke-linecap="round" stroke-miterlimit="4" d="M-1.7569 0.0959L-1.5653 0.5263M-1.9579 0.1853L-1.7663 0.6157"/><path fill="none" stroke="#000000" stroke-width="0.075" stroke-linecap="round" stroke-miterlimit="4" d="M-3.025 -0.5899L-3.5408 -0.6442M-3.002 -0.8087L-3.5178 -0.863"/><path fill="none" stroke="#000000" stroke-width="0.075" stroke-linecap="round" stroke-miterlimit="4" stroke-dasharray="0.075 0.125" d="M-0.9073 -1.5626L-0.5386 -1.3497L-0.6276 -0.9308M-0.8242 -0.7253L-1.286 -0.6768L-1.5388 -1.2445L-1.1969 -1.5524"/><path fill="none" stroke="#000000" stroke-width="0.075" stroke-linecap="round" stroke-miterlimit="4" stroke-dasharray="0.075 0.125" d="M-2.5652 -1.0783L-2.8527 -0.6824L-2.6644 -0.2595M-2.4057 -0.0578L-1.9232 -0.0071L-1.5333 -0.5438L-1.8031 -1.1497L-2.2564 -1.1974"/><text x="-0.552" y="-0.4431" text-anchor="middle" fill="#3050f8"><tspan font-family="Helvetica,Arial,sans-serif" font-size="0.5">N</tspan></text><text x="-1.095" y="-1.6626" text-anchor="middle" fill="#3050f8"><tspan font-family="Helvetica,Arial,sans-serif" font-size="0.5">N</tspan></text><text x="-1.5219" y="1.0643" text-anchor="middle" fill="#ff0d0d"><tspan font-family="Helvetica,Arial,sans-serif" font-size="0.5">O</tspan></text><text x="-2.6779" y="0.2243" text-anchor="middle" fill="#3050f8"><tspan font-family="Helvetica,Arial,sans-serif" font-size="0.5">N</tspan></text><text x="-3.834" y="-0.6156" text-anchor="middle" fill="#ff0d0d"><tspan font-family="Helvetica,Arial,sans-serif" font-size="0.5">O</tspan></text><text x="-2.5286" y="-1.1968" text-anchor="middle" fill="#3050f8"><tspan font-family="Helvetica,Arial,sans-serif" font-size="0.5">N</tspan></text></svg>