<svg xmlns="http://www.w3.org/2000/svg" width="78.0507mm" height="14.5881mm" viewBox="-0.37 -1.2233 13.0084 2.4313"><path fill="none" stroke="#000000" stroke-width="0.04" stroke-linecap="round" stroke-miterlimit="4" d="M0 0L0.825 0"/><path fill="none" stroke="#000000" stroke-width="0.04" stroke-linecap="round" stroke-miterlimit="4" d="M0.825 0L1.0957 -0.4689"/><path fill="none" stroke="#000000" stroke-width="0.04" stroke-linecap="round" stroke-miterlimit="4" d="M0.9029 -0.045L1.1649 0.4087M0.7471 0.045L1.009 0.4987"/><path fill="none" stroke="#000000" stroke-width="0.04" stroke-linecap="round" stroke-miterlimit="4" d="M3.4801 0.0168L3.152 0.2063L2.4375 -0.2063"/><path fill="none" stroke="#000000" stroke-width="0.04" stroke-linecap="round" stroke-miterlimit="4" d="M9.0534 -0.4791L8.5809 -0.2062L7.8664 -0.6188"/><path fill="none" stroke="#000000" stroke-width="0.04" stroke-linecap="round" stroke-miterlimit="4" d="M10.7243 -0.6188L10.0099 -0.2062"/><path fill="none" stroke="#000000" stroke-width="0.04" stroke-linecap="round" stroke-miterlimit="4" d="M10.0099 -0.2062L9.5373 -0.4791"/><path fill="none" stroke="#000000" stroke-width="0.04" stroke-linecap="round" stroke-miterlimit="4" d="M10.0999 -0.2062L10.0999 0.35M9.9199 -0.2062L9.9199 0.35"/><path fill="none" stroke="#000000" stroke-width="0.05" d="M4.8664 0L6.5664 0"/><path fill="#000000" d="M6.8664 0L6.5664 -0.11L6.5664 0.11Z"/><text x="1.2375" y="0.8505" text-anchor="middle" fill="#ff0d0d"><tspan font-family="Helvetica,Arial,sans-serif" font-size="0.4">O</tspan></text><text x="1.2375" y="-0.5785" text-anchor="middle" fill="#ff0d0d"><tspan font-family="Helvetica,Arial,sans-serif" font-size="0.4">O</tspan><tspan font-family="Helvetica,Arial,sans-serif" font-size="0.4">H</tspan></text><text x="3.8664" y="-0.0703" text-anchor="middle" fill="#ff0d0d"><tspan font-family="Helvetica,Arial,sans-serif" font-size="0.4">O</tspan><tspan font-family="Helvetica,Arial,sans-serif" font-size="0.4">H</tspan></text><text x="10.0099" y="0.7548" text-anchor="middle" fill="#ff0d0d"><tspan font-family="Helvetica,Arial,sans-serif" font-size="0.4">O</tspan></text><text x="9.2954" y="-0.4828" text-anchor="middle" fill="#ff0d0d"><tspan font-family="Helvetica,Arial,sans-serif" font-size="0.4">O</tspan></text><text x="11.9243" y="0.136" text-anchor="middle" fill="#ff0d0d"><tspan font-family="Helvetica,Arial,sans-serif" font-size="0.4">O</tspan><tspan font-family="Helvetica,Arial,sans-serif" font-size="0.4">H</tspan><tspan font-family="Helvetica,Arial,sans-serif" font-size="0.28" dy="0.112">2</tspan></text><text x="1.4375" y="0.187" text-anchor="middle" fill="#000000"><tspan font-family="Helvetica,Arial,sans-serif" font-size="0.55">+</tspan></text><text x="10.9243" y="0.187" text-anchor="middle" fill="#000000"><tspan font-family="Helvetica,Arial,sans-serif" font-size="0.55">+</tspan></text></svg>