<svg xmlns="http://www.w3.org/2000/svg" width="53.874mm" height="13.5405mm" viewBox="-0.37 -1.136 8.979 2.2567"><path fill="none" stroke="#000000" stroke-width="0.04" stroke-linecap="round" stroke-miterlimit="4" d="M1.3349 0.1498L1.0799 -0.6348L0.4789 -0.6348"/><path fill="none" stroke="#000000" stroke-width="0.04" stroke-linecap="round" stroke-miterlimit="4" d="M0.176 -0.3917L0 0.1499L0.342 0.3983"/><path fill="none" stroke="#000000" stroke-width="0.04" stroke-linecap="round" stroke-miterlimit="4" d="M2.1195 0.4048L1.3349 0.1498"/><path fill="none" stroke="#000000" stroke-width="0.04" stroke-linecap="round" stroke-miterlimit="4" d="M1.3349 0.1498L0.9929 0.3983"/><path fill="none" stroke="#000000" stroke-width="0.04" stroke-linecap="round" stroke-miterlimit="4" stroke-dasharray="0.11 0.09" d="M0.4789 -0.4948L0.9782 -0.4948L1.1703 0.0964L0.7547 0.3983M0.5802 0.3983L0.1646 0.0964L0.3232 -0.3917"/><path fill="none" stroke="#000000" stroke-width="0.04" stroke-linecap="round" stroke-miterlimit="4" d="M7.4544 0.1498L7.1994 -0.6348L6.7428 -0.6348"/><path fill="none" stroke="#000000" stroke-width="0.04" stroke-linecap="round" stroke-miterlimit="4" d="M6.2955 -0.3917L6.1195 0.1499L6.5744 0.4804"/><path fill="none" stroke="#000000" stroke-width="0.04" stroke-linecap="round" stroke-miterlimit="4" d="M8.239 0.4048L7.4544 0.1498"/><path fill="none" stroke="#000000" stroke-width="0.04" stroke-linecap="round" stroke-miterlimit="4" d="M7.4544 0.1498L6.9995 0.4804"/><path fill="none" stroke="#000000" stroke-width="0.04" stroke-linecap="round" stroke-miterlimit="4" stroke-dasharray="0.11 0.09" d="M6.7428 -0.4948L7.0977 -0.4948L7.2898 0.0964L6.8742 0.3983M6.6997 0.3983L6.2841 0.0964L6.4427 -0.3917"/><path fill="none" stroke="#000000" stroke-width="0.05" d="M3.1195 0L4.8195 0"/><path fill="#000000" d="M5.1195 0L4.8195 -0.11L4.8195 0.11Z"/><text x="0.2549" y="-0.4988" text-anchor="middle" fill="#3050f8"><tspan font-family="Helvetica,Arial,sans-serif" font-size="0.4">N</tspan></text><text x="0.6674" y="0.7708" text-anchor="middle" fill="#3050f8"><tspan font-family="Helvetica,Arial,sans-serif" font-size="0.4">N</tspan><tspan font-family="Helvetica,Arial,sans-serif" font-size="0.4">H</tspan></text><text x="6.3744" y="-0.4988" text-anchor="middle" fill="#3050f8"><tspan font-family="Helvetica,Arial,sans-serif" font-size="0.4">N</tspan><tspan font-family="Helvetica,Arial,sans-serif" font-size="0.4">H</tspan></text><text x="6.7869" y="0.7708" text-anchor="middle" fill="#3050f8"><tspan font-family="Helvetica,Arial,sans-serif" font-size="0.4">N</tspan></text></svg>