<svg xmlns="http://www.w3.org/2000/svg" width="30.8755mm" height="24.8712mm" viewBox="-4.7759 -2.4904 5.1459 4.1452"><path fill="none" stroke="#000000" stroke-width="0.04" stroke-linecap="round" stroke-miterlimit="4" d="M-0.4968 -0.873L-0.3805 -1.4201L-0.879 -1.7079"/><path fill="none" stroke="#000000" stroke-width="0.04" stroke-linecap="round" stroke-miterlimit="4" d="M0 0L-0.3479 -0.3864"/><path fill="none" stroke="#000000" stroke-width="0.04" stroke-linecap="round" stroke-miterlimit="4" d="M-0.7757 -0.5896L-1.3725 -0.5269"/><path fill="none" stroke="#000000" stroke-width="0.04" stroke-linecap="round" stroke-miterlimit="4" d="M-1.3036 -1.6448L-1.7081 -1.2805"/><path fill="none" stroke="#000000" stroke-width="0.04" stroke-linecap="round" stroke-miterlimit="4" d="M-1.7081 -1.2805L-1.3725 -0.5269"/><path fill="none" stroke="#000000" stroke-width="0.04" stroke-linecap="round" stroke-miterlimit="4" d="M-1.7081 -1.2805L-2.3049 -1.3433"/><path fill="none" stroke="#000000" stroke-width="0.04" stroke-linecap="round" stroke-miterlimit="4" d="M-1.3725 -0.5269L-1.8574 0.1406"/><path fill="none" stroke="#000000" stroke-width="0.04" stroke-linecap="round" stroke-miterlimit="4" d="M-1.8574 0.1406L-2.4542 0.0778"/><path fill="none" stroke="#000000" stroke-width="0.04" stroke-linecap="round" stroke-miterlimit="4" d="M-2.8483 0.2888L-3.1628 0.7218"/><path fill="none" stroke="#000000" stroke-width="0.04" stroke-linecap="round" stroke-miterlimit="4" d="M-2.7919 -0.2017L-3.0135 -0.6993"/><path fill="none" stroke="#000000" stroke-width="0.04" stroke-linecap="round" stroke-miterlimit="4" d="M-3.0135 -0.6993L-2.699 -1.1323"/><path fill="none" stroke="#000000" stroke-width="0.04" stroke-linecap="round" stroke-miterlimit="4" d="M-2.6426 -1.6228L-2.8641 -2.1204"/><path fill="none" stroke="#000000" stroke-width="0.04" stroke-linecap="round" stroke-miterlimit="4" d="M-1.7752 0.104L-1.557 0.5941M-1.9396 0.1772L-1.7215 0.6673"/><path fill="none" stroke="#000000" stroke-width="0.04" stroke-linecap="round" stroke-miterlimit="4" d="M-3.0229 -0.6098L-3.5937 -0.6698M-3.0041 -0.7888L-3.5749 -0.8488"/><path fill="none" stroke="#000000" stroke-width="0.04" stroke-linecap="round" stroke-miterlimit="4" stroke-dasharray="0.11 0.09" d="M-1.0009 -1.6166L-0.5386 -1.3497L-0.6399 -0.873M-0.7757 -0.7304L-1.286 -0.6768L-1.5388 -1.2445L-1.1369 -1.6064"/><path fill="none" stroke="#000000" stroke-width="0.04" stroke-linecap="round" stroke-miterlimit="4" stroke-dasharray="0.11 0.09" d="M-2.5259 -1.1323L-2.8527 -0.6824L-2.6387 -0.2017M-2.4542 -0.0629L-1.9232 -0.0071L-1.5333 -0.5438L-1.8031 -1.1497L-2.3049 -1.2025"/><text x="-0.552" y="-0.4771" text-anchor="middle" fill="#3050f8"><tspan font-family="Helvetica,Arial,sans-serif" font-size="0.4">N</tspan></text><text x="-1.095" y="-1.6966" text-anchor="middle" fill="#3050f8"><tspan font-family="Helvetica,Arial,sans-serif" font-size="0.4">N</tspan></text><text x="-1.5219" y="1.0303" text-anchor="middle" fill="#ff0d0d"><tspan font-family="Helvetica,Arial,sans-serif" font-size="0.4">O</tspan></text><text x="-2.6779" y="0.1903" text-anchor="middle" fill="#3050f8"><tspan font-family="Helvetica,Arial,sans-serif" font-size="0.4">N</tspan></text><text x="-3.834" y="-0.6496" text-anchor="middle" fill="#ff0d0d"><tspan font-family="Helvetica,Arial,sans-serif" font-size="0.4">O</tspan></text><text x="-2.5286" y="-1.2308" text-anchor="middle" fill="#3050f8"><tspan font-family="Helvetica,Arial,sans-serif" font-size="0.4">N</tspan></text><text x="-1.3724" y="1.3009" text-anchor="middle" fill="#333333"><tspan font-family="Helvetica,Arial,sans-serif" font-size="0.208">3.44</tspan></text><text x="-4.2306" y="-0.7566" text-anchor="middle" fill="#333333"><tspan font-family="Helvetica,Arial,sans-serif" font-size="0.208">3.44</tspan></text></svg>